<svg version="1.1" id="Layer_1" xmlns="http://www.w3.org/2000/svg" xmlns:xlink="http://www.w3.org/1999/xlink" x="0px" y="0px"
	 width="100%" viewBox="0 0 1557 483" enable-background="new 0 0 1557 483" xml:space="preserve">
<path fill="#000000" opacity="1.000000" stroke="none" 
	d="
M1558.000000,323.000000 
	C1558.000000,376.625488 1558.000000,430.250946 1558.000000,484.000000 
	C1428.307495,484.000000 1298.614990,484.000000 1168.463379,483.616302 
	C1172.661987,472.164337 1177.403809,461.130554 1181.958618,450.020050 
	C1189.673584,431.201019 1197.207886,412.307800 1204.933472,393.493164 
	C1213.880615,371.703400 1223.031494,349.997192 1231.947144,328.194672 
	C1240.310913,307.741547 1248.386719,287.170563 1256.766602,266.724152 
	C1265.029175,246.564560 1273.605103,226.533508 1281.876709,206.377609 
	C1290.692627,184.895248 1299.308960,163.330963 1308.020874,141.805908 
	C1311.043213,134.338760 1314.091187,126.882080 1317.298584,119.000000 
	C1292.386475,119.000000 1268.229736,119.000000 1244.072998,119.000000 
	C1236.075806,119.000000 1236.158203,119.033173 1233.152466,126.505562 
	C1224.427124,148.196304 1215.646729,169.864899 1206.854858,191.528763 
	C1199.567627,209.485336 1192.283447,227.443436 1184.899170,245.360184 
	C1181.202637,254.329300 1177.285889,263.207672 1173.032349,273.146912 
	C1171.692993,270.804260 1170.680908,269.407013 1170.040771,267.856171 
	C1164.359009,254.091553 1158.715576,240.310913 1153.114868,226.513046 
	C1145.706665,208.261612 1138.390869,189.972565 1130.953979,171.732880 
	C1124.179688,155.118576 1117.238525,138.572113 1110.519287,121.935898 
	C1109.403809,119.174423 1107.605835,118.953400 1105.117188,118.961716 
	C1084.785522,119.029686 1064.453613,119.000000 1044.121704,119.000000 
	C1039.141235,119.000000 1034.160889,119.000000 1028.994141,119.000000 
	C1029.126221,120.161873 1029.046021,121.033005 1029.334717,121.757172 
	C1033.539429,132.306702 1037.765747,142.847885 1042.041748,153.368759 
	C1050.003418,172.958008 1058.057007,192.510101 1065.970215,212.118820 
	C1078.017212,241.970108 1089.947754,271.868317 1101.983765,301.724030 
	C1111.267334,324.752411 1120.687500,347.725952 1129.871460,370.793762 
	C1130.605347,372.637024 1130.604004,375.274658 1129.876709,377.123047 
	C1118.673340,405.593231 1107.255859,433.978973 1095.979858,462.420746 
	C1093.154175,469.548096 1090.651245,476.803467 1088.000000,484.000000 
	C725.666687,484.000000 363.333313,484.000000 1.000000,484.000000 
	C1.000000,451.899414 1.000000,419.910980 1.468657,387.461243 
	C36.868118,387.000000 71.798920,387.000000 107.085190,387.000000 
	C159.448044,258.190857 211.724014,129.595428 264.000000,0.999999 
	C695.218140,1.000000 1126.436279,1.000000 1558.000000,1.000000 
	C1558.000000,97.025551 1558.000000,193.051514 1557.666138,289.834229 
	C1556.554688,288.706207 1555.494019,286.886078 1555.046631,284.925995 
	C1552.503784,273.786652 1547.409058,263.735229 1539.235718,256.063568 
	C1528.858643,246.323242 1516.670898,238.858551 1502.748779,235.021927 
	C1486.187744,230.458115 1469.497070,226.366425 1452.885132,221.984818 
	C1439.883301,218.555435 1426.661377,216.258759 1414.255249,210.308212 
	C1405.292114,206.009048 1402.462891,192.624710 1407.497803,184.863205 
	C1411.188599,179.173721 1416.456177,176.004456 1422.516724,174.069092 
	C1434.747314,170.163483 1447.237183,170.385300 1459.896606,171.903671 
	C1474.786255,173.689514 1488.817383,178.087463 1502.126587,184.708633 
	C1511.248901,189.246979 1519.978027,194.575653 1529.320557,199.795547 
	C1533.923462,188.018356 1538.608032,176.292358 1543.077637,164.484970 
	C1545.278931,158.670303 1547.155884,152.727692 1548.985229,146.783142 
	C1549.254761,145.907654 1548.775513,144.318588 1548.076660,143.714752 
	C1545.508545,141.495651 1542.936646,139.081192 1539.943115,137.589279 
	C1528.489136,131.881119 1517.242065,125.415405 1505.209106,121.308456 
	C1493.257446,117.229294 1480.486938,115.479141 1468.014893,113.013969 
	C1453.854736,110.215103 1439.471191,110.716660 1425.297363,112.216187 
	C1410.916504,113.737610 1396.778442,116.961464 1383.370117,122.940376 
	C1367.809448,129.879013 1353.954102,138.964203 1343.744141,152.824295 
	C1336.074219,163.236069 1330.962280,174.923386 1330.162476,187.884491 
	C1329.636475,196.408035 1329.923950,205.138596 1331.184448,213.576706 
	C1332.838867,224.652176 1337.164673,234.833374 1344.855835,243.410751 
	C1359.112183,259.309967 1377.792114,266.934998 1397.807617,271.975098 
	C1421.019653,277.820129 1444.366699,283.134521 1467.534302,289.145203 
	C1473.862183,290.786957 1479.692017,294.573669 1481.889771,301.242737 
	C1485.837036,313.221130 1481.226807,321.744293 1468.326904,326.869446 
	C1454.632202,332.310333 1440.144653,332.247681 1425.790283,329.936859 
	C1414.340942,328.093689 1402.817505,326.193665 1391.676270,323.072113 
	C1374.129639,318.155792 1357.915161,309.995117 1342.255615,299.644318 
	C1334.733521,319.064209 1327.303101,338.247559 1319.643921,358.021545 
	C1328.358643,362.674500 1336.649658,367.524841 1345.292358,371.635468 
	C1370.189087,383.476776 1396.938477,388.266968 1424.096680,389.757721 
	C1447.980469,391.068787 1471.873779,390.364929 1495.252930,383.206177 
	C1510.567505,378.516785 1524.216919,371.488739 1535.802734,360.608734 
	C1546.568359,350.498749 1553.717651,338.232513 1556.178101,323.462616 
	C1556.219482,323.214111 1557.368042,323.150085 1558.000000,323.000000 
M469.000000,258.500000 
	C469.000000,300.587280 469.000000,342.674530 469.000000,384.727081 
	C496.954010,384.727081 524.354187,384.727081 552.000000,384.727081 
	C552.000000,382.653015 552.000000,380.843719 552.000000,379.034424 
	C552.000000,331.047546 551.928345,283.060425 552.088684,235.074097 
	C552.109192,228.920288 552.636353,222.594315 554.132935,216.651306 
	C558.948975,197.525253 570.535034,183.742203 589.662598,178.311630 
	C598.447815,175.817368 608.250977,175.682037 617.469543,176.302765 
	C625.855591,176.867447 633.543091,180.937302 638.976929,187.949066 
	C646.785156,198.024689 648.783875,210.085205 648.859863,222.181183 
	C649.187500,274.331512 649.000000,326.485107 649.000000,378.637512 
	C649.000000,380.388641 649.000000,382.139771 649.000000,383.666504 
	C677.075928,383.666504 704.476929,383.666504 732.000000,383.666504 
	C732.000000,331.023590 732.041687,278.713989 731.955444,226.404602 
	C731.942383,218.488144 731.306152,210.573730 731.007263,202.656525 
	C730.496521,189.125763 727.498047,176.127731 723.029297,163.383850 
	C717.970398,148.956772 709.658997,136.705765 697.678833,127.406502 
	C681.925659,115.178436 663.140320,110.841141 643.713745,110.236565 
	C633.179871,109.908737 622.415771,111.186737 612.028015,113.168617 
	C590.864502,117.206398 572.379700,126.657089 558.160767,143.359238 
	C555.822815,146.105484 553.750488,149.077866 551.555481,151.945740 
	C550.947754,151.443619 550.340088,150.941513 549.732361,150.439392 
	C549.732361,139.352676 549.732361,128.265961 549.732361,117.298096 
	C522.662170,117.298096 495.928223,117.298096 469.000000,117.298096 
	C469.000000,164.230606 469.000000,210.865311 469.000000,258.500000 
M895.589355,281.997528 
	C902.854004,283.997559 910.236084,285.654633 917.351318,288.091064 
	C924.938354,290.689117 931.516785,294.970123 932.930237,303.725372 
	C934.386963,312.748932 930.546387,319.275238 922.695129,323.878448 
	C915.331665,328.195618 907.184143,329.698090 899.040039,329.805939 
	C888.719727,329.942566 878.277039,329.354553 868.078186,327.814178 
	C857.303528,326.186859 846.315857,324.213745 836.208374,320.338654 
	C821.152771,314.566498 806.787781,306.993042 791.882202,300.071472 
	C784.838501,318.107239 777.354919,337.269287 769.929932,356.281281 
	C775.196411,359.509460 779.991943,362.762909 785.063721,365.505646 
	C812.888977,380.553009 843.137146,386.943481 874.299011,388.789703 
	C892.691650,389.879395 911.234741,389.753448 929.524841,386.044220 
	C944.257629,383.056458 958.533997,378.936249 971.407593,370.918701 
	C987.074829,361.161316 998.826416,348.135712 1004.312317,330.194214 
	C1007.931335,318.358124 1008.835815,306.325897 1007.110596,293.937561 
	C1005.093140,279.451294 1000.354309,266.278503 990.089844,255.733643 
	C980.121338,245.492813 967.898315,238.229294 954.315491,234.169067 
	C937.403015,229.113586 920.079712,225.446213 902.991211,220.960770 
	C891.056885,217.828201 879.136780,214.588287 867.375854,210.872437 
	C862.272400,209.260010 857.739746,206.172592 855.996887,200.458527 
	C852.163574,187.890579 857.868835,177.947662 871.687866,173.124619 
	C880.346313,170.102707 889.378418,169.405609 898.785095,169.750031 
	C918.636658,170.476898 936.982544,175.749954 954.383606,184.846939 
	C962.682373,189.185410 970.755920,193.954773 979.136414,198.643631 
	C986.566223,180.375092 993.973816,162.161102 1001.750000,143.040695 
	C990.463013,136.951859 979.781494,130.339905 968.420898,125.240822 
	C945.852295,115.111053 921.800354,110.663948 897.190125,110.200256 
	C886.632263,110.001343 876.015442,111.838768 865.456421,113.027374 
	C845.677612,115.253830 827.776123,122.707481 811.710938,134.144211 
	C798.029480,143.883972 787.961853,156.632980 782.909973,173.060394 
	C779.052368,185.604477 779.438660,198.206573 780.969849,210.976089 
	C783.003174,227.932678 791.274963,241.517349 804.483093,251.652954 
	C821.033813,264.353607 840.764587,269.825500 860.884766,274.050476 
	C872.220337,276.430725 883.451294,279.308899 895.589355,281.997528 
M364.500000,387.000000 
	C392.592926,387.000000 420.685822,387.000000 449.314117,387.000000 
	C395.953735,262.196655 342.841461,137.973618 289.500793,13.216399 
	C288.581055,14.268024 288.188446,14.545850 288.030823,14.922136 
	C283.822235,24.969791 279.666290,35.039543 275.444000,45.081406 
	C263.090332,74.462181 250.628067,103.797829 238.442062,133.247879 
	C236.790558,137.239075 234.797470,142.269562 235.871445,145.975952 
	C238.574234,155.303619 242.887787,164.171280 246.650040,173.183929 
	C256.030334,195.654922 265.561584,218.063416 274.846375,240.573639 
	C283.574219,261.733673 291.951477,283.038361 300.687347,304.195038 
	C311.629700,330.695282 322.883545,357.067535 333.689209,383.622711 
	C334.824646,386.413025 335.930634,387.059326 338.506775,387.032440 
	C346.837036,386.945404 355.168823,386.999969 364.500000,387.000000 
z"/>
<path fill="#FFFFFF" opacity="1.000000" stroke="none" 
	d="
M1088.468628,484.000000 
	C1090.651245,476.803467 1093.154175,469.548096 1095.979858,462.420746 
	C1107.255859,433.978973 1118.673340,405.593231 1129.876709,377.123047 
	C1130.604004,375.274658 1130.605347,372.637024 1129.871460,370.793762 
	C1120.687500,347.725952 1111.267334,324.752411 1101.983765,301.724030 
	C1089.947754,271.868317 1078.017212,241.970108 1065.970215,212.118820 
	C1058.057007,192.510101 1050.003418,172.958008 1042.041748,153.368759 
	C1037.765747,142.847885 1033.539429,132.306702 1029.334717,121.757172 
	C1029.046021,121.033005 1029.126221,120.161873 1028.994141,119.000000 
	C1034.160889,119.000000 1039.141235,119.000000 1044.121704,119.000000 
	C1064.453613,119.000000 1084.785522,119.029686 1105.117188,118.961716 
	C1107.605835,118.953400 1109.403809,119.174423 1110.519287,121.935898 
	C1117.238525,138.572113 1124.179688,155.118576 1130.953979,171.732880 
	C1138.390869,189.972565 1145.706665,208.261612 1153.114868,226.513046 
	C1158.715576,240.310913 1164.359009,254.091553 1170.040771,267.856171 
	C1170.680908,269.407013 1171.692993,270.804260 1173.032349,273.146912 
	C1177.285889,263.207672 1181.202637,254.329300 1184.899170,245.360184 
	C1192.283447,227.443436 1199.567627,209.485336 1206.854858,191.528763 
	C1215.646729,169.864899 1224.427124,148.196304 1233.152466,126.505562 
	C1236.158203,119.033173 1236.075806,119.000000 1244.072998,119.000000 
	C1268.229736,119.000000 1292.386475,119.000000 1317.298584,119.000000 
	C1314.091187,126.882080 1311.043213,134.338760 1308.020874,141.805908 
	C1299.308960,163.330963 1290.692627,184.895248 1281.876709,206.377609 
	C1273.605103,226.533508 1265.029175,246.564560 1256.766602,266.724152 
	C1248.386719,287.170563 1240.310913,307.741547 1231.947144,328.194672 
	C1223.031494,349.997192 1213.880615,371.703400 1204.933472,393.493164 
	C1197.207886,412.307800 1189.673584,431.201019 1181.958618,450.020050 
	C1177.403809,461.130554 1172.661987,472.164337 1168.002197,483.616302 
	C1141.645752,484.000000 1115.291504,484.000000 1088.468628,484.000000 
z"/>
<path fill="#FFFFFF" opacity="1.000000" stroke="none" 
	d="
M1558.000000,322.531311 
	C1557.368042,323.150085 1556.219482,323.214111 1556.178101,323.462616 
	C1553.717651,338.232513 1546.568359,350.498749 1535.802734,360.608734 
	C1524.216919,371.488739 1510.567505,378.516785 1495.252930,383.206177 
	C1471.873779,390.364929 1447.980469,391.068787 1424.096680,389.757721 
	C1396.938477,388.266968 1370.189087,383.476776 1345.292358,371.635468 
	C1336.649658,367.524841 1328.358643,362.674500 1319.643921,358.021545 
	C1327.303101,338.247559 1334.733521,319.064209 1342.255615,299.644318 
	C1357.915161,309.995117 1374.129639,318.155792 1391.676270,323.072113 
	C1402.817505,326.193665 1414.340942,328.093689 1425.790283,329.936859 
	C1440.144653,332.247681 1454.632202,332.310333 1468.326904,326.869446 
	C1481.226807,321.744293 1485.837036,313.221130 1481.889771,301.242737 
	C1479.692017,294.573669 1473.862183,290.786957 1467.534302,289.145203 
	C1444.366699,283.134521 1421.019653,277.820129 1397.807617,271.975098 
	C1377.792114,266.934998 1359.112183,259.309967 1344.855835,243.410751 
	C1337.164673,234.833374 1332.838867,224.652176 1331.184448,213.576706 
	C1329.923950,205.138596 1329.636475,196.408035 1330.162476,187.884491 
	C1330.962280,174.923386 1336.074219,163.236069 1343.744141,152.824295 
	C1353.954102,138.964203 1367.809448,129.879013 1383.370117,122.940376 
	C1396.778442,116.961464 1410.916504,113.737610 1425.297363,112.216187 
	C1439.471191,110.716660 1453.854736,110.215103 1468.014893,113.013969 
	C1480.486938,115.479141 1493.257446,117.229294 1505.209106,121.308456 
	C1517.242065,125.415405 1528.489136,131.881119 1539.943115,137.589279 
	C1542.936646,139.081192 1545.508545,141.495651 1548.076660,143.714752 
	C1548.775513,144.318588 1549.254761,145.907654 1548.985229,146.783142 
	C1547.155884,152.727692 1545.278931,158.670303 1543.077637,164.484970 
	C1538.608032,176.292358 1533.923462,188.018356 1529.320557,199.795547 
	C1519.978027,194.575653 1511.248901,189.246979 1502.126587,184.708633 
	C1488.817383,178.087463 1474.786255,173.689514 1459.896606,171.903671 
	C1447.237183,170.385300 1434.747314,170.163483 1422.516724,174.069092 
	C1416.456177,176.004456 1411.188599,179.173721 1407.497803,184.863205 
	C1402.462891,192.624710 1405.292114,206.009048 1414.255249,210.308212 
	C1426.661377,216.258759 1439.883301,218.555435 1452.885132,221.984818 
	C1469.497070,226.366425 1486.187744,230.458115 1502.748779,235.021927 
	C1516.670898,238.858551 1528.858643,246.323242 1539.235718,256.063568 
	C1547.409058,263.735229 1552.503784,273.786652 1555.046631,284.925995 
	C1555.494019,286.886078 1556.554688,288.706207 1557.666138,290.295471 
	C1558.000000,300.687561 1558.000000,311.375122 1558.000000,322.531311 
z"/>
<path fill="#FFB71B" opacity="1.000000" stroke="none" 
	d="
M263.531342,0.999999 
	C211.724014,129.595428 159.448044,258.190857 107.085190,387.000000 
	C71.798920,387.000000 36.868118,387.000000 1.468657,387.000000 
	C1.000000,384.629425 1.000000,382.258881 1.300676,379.729980 
	C3.050943,377.442535 4.919692,375.486603 5.882431,373.156281 
	C12.364992,357.465515 18.593155,341.669861 25.022356,325.956726 
	C34.946392,301.702118 45.049664,277.520599 54.920433,253.244476 
	C64.726135,229.128357 74.227959,204.888519 84.066261,180.785873 
	C94.214790,155.923187 104.710968,131.202454 114.867355,106.342941 
	C126.365364,78.199547 137.677856,49.980206 149.018158,21.772633 
	C151.784775,14.891040 154.344925,7.926436 157.000000,1.000000 
	C192.354233,1.000000 227.708450,1.000000 263.531342,0.999999 
z"/>
<path fill="#000000" opacity="1.000000" stroke="none" 
	d="
M156.531342,1.000000 
	C154.344925,7.926436 151.784775,14.891040 149.018158,21.772633 
	C137.677856,49.980206 126.365364,78.199547 114.867355,106.342941 
	C104.710968,131.202454 94.214790,155.923187 84.066261,180.785873 
	C74.227959,204.888519 64.726135,229.128357 54.920433,253.244476 
	C45.049664,277.520599 34.946392,301.702118 25.022356,325.956726 
	C18.593155,341.669861 12.364992,357.465515 5.882431,373.156281 
	C4.919692,375.486603 3.050943,377.442535 1.300676,379.285828 
	C1.000000,253.103302 1.000000,127.206589 1.000000,1.000000 
	C52.687149,1.000000 104.374916,1.000000 156.531342,1.000000 
z"/>
<path fill="#FFFFFF" opacity="1.000000" stroke="none" 
	d="
M469.000000,258.000000 
	C469.000000,210.865311 469.000000,164.230606 469.000000,117.298096 
	C495.928223,117.298096 522.662170,117.298096 549.732361,117.298096 
	C549.732361,128.265961 549.732361,139.352676 549.732361,150.439392 
	C550.340088,150.941513 550.947754,151.443619 551.555481,151.945740 
	C553.750488,149.077866 555.822815,146.105484 558.160767,143.359238 
	C572.379700,126.657089 590.864502,117.206398 612.028015,113.168617 
	C622.415771,111.186737 633.179871,109.908737 643.713745,110.236565 
	C663.140320,110.841141 681.925659,115.178436 697.678833,127.406502 
	C709.658997,136.705765 717.970398,148.956772 723.029297,163.383850 
	C727.498047,176.127731 730.496521,189.125763 731.007263,202.656525 
	C731.306152,210.573730 731.942383,218.488144 731.955444,226.404602 
	C732.041687,278.713989 732.000000,331.023590 732.000000,383.666504 
	C704.476929,383.666504 677.075928,383.666504 649.000000,383.666504 
	C649.000000,382.139771 649.000000,380.388641 649.000000,378.637512 
	C649.000000,326.485107 649.187500,274.331512 648.859863,222.181183 
	C648.783875,210.085205 646.785156,198.024689 638.976929,187.949066 
	C633.543091,180.937302 625.855591,176.867447 617.469543,176.302765 
	C608.250977,175.682037 598.447815,175.817368 589.662598,178.311630 
	C570.535034,183.742203 558.948975,197.525253 554.132935,216.651306 
	C552.636353,222.594315 552.109192,228.920288 552.088684,235.074097 
	C551.928345,283.060425 552.000000,331.047546 552.000000,379.034424 
	C552.000000,380.843719 552.000000,382.653015 552.000000,384.727081 
	C524.354187,384.727081 496.954010,384.727081 469.000000,384.727081 
	C469.000000,342.674530 469.000000,300.587280 469.000000,258.000000 
z"/>
<path fill="#FFFFFF" opacity="1.000000" stroke="none" 
	d="
M895.159363,281.980164 
	C883.451294,279.308899 872.220337,276.430725 860.884766,274.050476 
	C840.764587,269.825500 821.033813,264.353607 804.483093,251.652954 
	C791.274963,241.517349 783.003174,227.932678 780.969849,210.976089 
	C779.438660,198.206573 779.052368,185.604477 782.909973,173.060394 
	C787.961853,156.632980 798.029480,143.883972 811.710938,134.144211 
	C827.776123,122.707481 845.677612,115.253830 865.456421,113.027374 
	C876.015442,111.838768 886.632263,110.001343 897.190125,110.200256 
	C921.800354,110.663948 945.852295,115.111053 968.420898,125.240822 
	C979.781494,130.339905 990.463013,136.951859 1001.750000,143.040695 
	C993.973816,162.161102 986.566223,180.375092 979.136414,198.643631 
	C970.755920,193.954773 962.682373,189.185410 954.383606,184.846939 
	C936.982544,175.749954 918.636658,170.476898 898.785095,169.750031 
	C889.378418,169.405609 880.346313,170.102707 871.687866,173.124619 
	C857.868835,177.947662 852.163574,187.890579 855.996887,200.458527 
	C857.739746,206.172592 862.272400,209.260010 867.375854,210.872437 
	C879.136780,214.588287 891.056885,217.828201 902.991211,220.960770 
	C920.079712,225.446213 937.403015,229.113586 954.315491,234.169067 
	C967.898315,238.229294 980.121338,245.492813 990.089844,255.733643 
	C1000.354309,266.278503 1005.093140,279.451294 1007.110596,293.937561 
	C1008.835815,306.325897 1007.931335,318.358124 1004.312317,330.194214 
	C998.826416,348.135712 987.074829,361.161316 971.407593,370.918701 
	C958.533997,378.936249 944.257629,383.056458 929.524841,386.044220 
	C911.234741,389.753448 892.691650,389.879395 874.299011,388.789703 
	C843.137146,386.943481 812.888977,380.553009 785.063721,365.505646 
	C779.991943,362.762909 775.196411,359.509460 769.929932,356.281281 
	C777.354919,337.269287 784.838501,318.107239 791.882202,300.071472 
	C806.787781,306.993042 821.152771,314.566498 836.208374,320.338654 
	C846.315857,324.213745 857.303528,326.186859 868.078186,327.814178 
	C878.277039,329.354553 888.719727,329.942566 899.040039,329.805939 
	C907.184143,329.698090 915.331665,328.195618 922.695129,323.878448 
	C930.546387,319.275238 934.386963,312.748932 932.930237,303.725372 
	C931.516785,294.970123 924.938354,290.689117 917.351318,288.091064 
	C910.236084,285.654633 902.854004,283.997559 895.159363,281.980164 
z"/>
<path fill="#FFFFFF" opacity="1.000000" stroke="none" 
	d="
M364.000000,387.000000 
	C355.168823,386.999969 346.837036,386.945404 338.506775,387.032440 
	C335.930634,387.059326 334.824646,386.413025 333.689209,383.622711 
	C322.883545,357.067535 311.629700,330.695282 300.687347,304.195038 
	C291.951477,283.038361 283.574219,261.733673 274.846375,240.573639 
	C265.561584,218.063416 256.030334,195.654922 246.650040,173.183929 
	C242.887787,164.171280 238.574234,155.303619 235.871445,145.975952 
	C234.797470,142.269562 236.790558,137.239075 238.442062,133.247879 
	C250.628067,103.797829 263.090332,74.462181 275.444000,45.081406 
	C279.666290,35.039543 283.822235,24.969791 288.030823,14.922136 
	C288.188446,14.545850 288.581055,14.268024 289.500793,13.216399 
	C342.841461,137.973618 395.953735,262.196655 449.314117,387.000000 
	C420.685822,387.000000 392.592926,387.000000 364.000000,387.000000 
z"/>
</svg>